# xmcd
#
# Track frame offsets: 
#        150
#        19434
#        50502
#        81186
#        104645
#        130690
#        155048
#        173758
#        199341
#        220345
#
# Disc length: 3416 seconds
#
# Revision: 0
# Processed by: cddbd v1.5.2PL0 Copyright (c) Steve Scherf et al.
# Submitted via: ExactAudioCopy v0.95b3
#
DISCID=910d560a
DTITLE=Scott Henderson - Dog Party
DYEAR=1994
DGENRE=Blues
TTITLE0=Hole Diggin'
TTITLE1=Fence Climbin' Blues
TTITLE2=Dog Party
TTITLE3=Same As You
TTITLE4=Milk Bone
TTITLE5=Hell Bent Pup
TTITLE6=Hound Dog
TTITLE7=Dog Walk
TTITLE8=Smelly Ol' Dog Blues
TTITLE9=Too Many Gittars
EXTD=
EXTT0=
EXTT1=
EXTT2=
EXTT3=
EXTT4=
EXTT5=
EXTT6=
EXTT7=
EXTT8=
EXTT9=
PLAYORDER=
